<?xml version="1.0" standalone="no"?>
<!DOCTYPE svg PUBLIC "-//W3C//DTD SVG 20010904//EN"
 "http://www.w3.org/TR/2001/REC-SVG-20010904/DTD/svg10.dtd">
<svg version="1.0" xmlns="http://www.w3.org/2000/svg"
 width="291.000000pt" height="291.000000pt" viewBox="0 0 291.000000 291.000000"
 preserveAspectRatio="xMidYMid meet">
<metadata>
Created by potrace 1.11, written by Peter Selinger 2001-2013
</metadata>
<g transform="translate(0.000000,291.000000) scale(0.100000,-0.100000)"
fill="#000000" stroke="none">
<path d="M1380 2885 c-161 -44 -280 -205 -280 -375 0 -52 -3 -59 -22 -66 -47
-14 -185 -87 -247 -131 -64 -44 -66 -45 -91 -28 -163 107 -349 95 -490 -31
-189 -171 -145 -498 84 -616 l30 -15 0 -205 1 -204 -53 -33 c-189 -117 -233
-382 -92 -559 110 -140 310 -182 471 -99 l70 36 52 -40 c29 -22 98 -63 155
-91 83 -42 104 -57 108 -77 31 -157 100 -252 222 -309 50 -24 69 -27 162 -27
96 0 110 2 163 30 109 54 193 170 213 293 6 35 10 39 103 83 53 26 124 68 159
93 l63 47 67 -33 c61 -30 74 -33 162 -33 87 0 101 3 161 32 80 39 150 111 187
191 23 49 27 70 27 152 0 83 -4 103 -28 156 -27 59 -100 141 -156 175 l-24 15
-1 198 -1 197 40 24 c90 53 154 139 181 245 33 129 -3 249 -105 351 -85 85
-150 112 -266 112 -86 0 -144 -17 -207 -58 l-38 -25 -52 40 c-29 23 -96 62
-149 88 l-96 47 -5 95 c-5 120 -36 187 -120 265 -96 89 -234 124 -358 90z
m209 -24 c253 -79 338 -390 160 -586 -85 -93 -213 -138 -327 -115 -123 25
-218 99 -271 210 -22 47 -26 68 -26 145 0 78 4 98 29 152 76 166 261 248 435
194z m-931 -556 c110 -49 212 -186 212 -285 l0 -30 -177 0 -178 1 38 20 c41
22 49 34 15 24 -64 -18 -64 -18 -29 19 37 39 32 48 -9 16 -36 -28 -43 -25 -25
11 24 45 12 58 -14 16 -12 -20 -25 -37 -28 -37 -3 0 -2 21 2 48 8 56 -5 49
-21 -11 l-11 -42 -15 50 -16 50 -1 -45 -2 -45 -29 35 c-29 34 -30 34 -20 7 5
-16 15 -38 21 -49 l11 -21 -28 20 c-53 37 -59 36 -24 -2 l35 -38 -30 7 c-16 4
-38 9 -49 13 -30 9 -10 -13 26 -28 l32 -13 -44 -12 -45 -12 37 -1 c50 -1 56
-17 13 -31 -44 -15 -46 -32 -3 -19 50 14 54 11 25 -19 -35 -36 -35 -49 1 -24
51 36 54 35 33 -7 -26 -50 -11 -55 19 -6 12 19 23 35 24 35 1 0 0 -15 -2 -34
-6 -56 4 -65 18 -16 l13 45 9 -35 c15 -54 30 -63 22 -12 -4 23 -4 42 -1 42 4
0 18 -17 32 -37 26 -40 35 -26 10 17 -21 37 -18 43 13 22 52 -36 57 -35 17 7
l-39 41 47 -14 c54 -16 62 -7 15 17 -32 15 -26 16 141 16 l174 1 -6 -45 c-16
-111 -114 -234 -222 -275 -194 -74 -401 21 -476 219 -17 45 -20 71 -16 136 5
99 30 158 94 226 109 117 266 149 411 84z m1837 10 c122 -32 217 -122 255
-244 25 -80 25 -132 0 -212 -40 -126 -134 -213 -264 -246 -197 -48 -393 81
-437 288 -31 144 53 314 191 384 91 46 160 54 255 30z m-1305 -650 c0 -20 5
-25 25 -25 31 0 50 -32 35 -60 -8 -14 -21 -20 -45 -20 l-35 0 0 65 c0 37 4 65
10 65 6 0 10 -11 10 -25z m-200 -35 c0 -49 1 -50 30 -50 17 0 30 -4 30 -10 0
-5 -18 -10 -40 -10 l-40 0 0 60 c0 33 4 60 10 60 6 0 10 -22 10 -50z m610 25
c0 -8 8 -15 18 -15 16 -1 16 -1 0 -11 -10 -5 -18 -19 -18 -29 0 -10 8 -24 18
-30 15 -9 14 -10 -8 -8 -20 2 -26 10 -28 33 -2 16 -9 33 -15 37 -9 6 -9 8 1 8
6 0 12 7 12 15 0 8 5 15 10 15 6 0 10 -7 10 -15z m-462 -56 c3 -35 3 -36 -37
-37 -35 -2 -41 1 -41 18 0 15 9 22 30 27 17 3 30 10 30 15 0 6 -11 8 -25 6
-14 -3 -25 -1 -25 4 0 5 15 8 33 6 29 -3 32 -6 35 -39z m226 19 c14 -23 -3
-52 -33 -56 -42 -6 -67 38 -39 66 17 17 58 11 72 -10z m73 10 c-10 -5 -17 -21
-17 -38 0 -17 -4 -30 -10 -30 -5 0 -10 17 -10 39 0 35 2 39 27 39 21 0 23 -2
10 -10z m107 -4 c3 -9 6 -26 6 -38 0 -20 -6 -23 -40 -24 -34 -2 -40 1 -40 18
0 15 9 22 30 26 16 4 27 11 24 16 -4 5 -15 8 -25 5 -11 -3 -19 -1 -19 4 0 16
58 10 64 -7z m190 -6 c17 -28 -4 -53 -45 -53 -28 0 -35 4 -37 23 -2 13 -1 30
2 38 8 21 66 14 80 -8z m67 6 c-12 -9 -21 -26 -21 -40 0 -13 -4 -24 -10 -24
-5 0 -10 17 -10 38 0 37 2 39 31 40 31 1 31 0 10 -14z m63 -11 l14 -28 11 28
c9 24 31 38 31 20 -1 -24 -58 -119 -72 -121 -10 -2 -18 1 -18 7 0 6 6 11 14
11 23 0 25 22 5 62 -22 43 -23 48 -9 48 5 0 16 -12 24 -27z m-104 -188 l0 -65
-35 0 c-24 0 -37 6 -45 20 -15 28 4 60 35 60 20 0 25 5 25 25 0 14 5 25 10 25
6 0 10 -28 10 -65z m-568 33 c2 -18 10 -23 33 -23 23 0 31 5 33 23 7 46 22 20
22 -38 0 -60 -16 -84 -22 -32 -3 23 -8 27 -33 27 -25 0 -30 -4 -33 -27 -6 -52
-22 -28 -22 32 0 58 15 84 22 38z m186 -60 c3 -37 3 -38 -32 -38 -19 0 -38 5
-41 10 -9 15 14 40 36 40 11 0 19 5 19 11 0 6 -9 9 -20 6 -11 -3 -20 -1 -20 5
0 5 12 8 28 6 23 -3 27 -8 30 -40z m102 34 c0 -5 -9 -17 -20 -27 -26 -23 -25
-33 3 -38 13 -3 8 -5 -15 -6 -43 -1 -52 20 -18 41 26 17 25 26 -2 31 -14 3 -9
5 15 6 20 0 37 -3 37 -7z m94 -8 c3 -9 6 -26 6 -38 0 -20 -6 -23 -40 -24 -34
-2 -40 1 -40 18 0 15 9 22 30 26 16 4 27 11 24 16 -4 5 -15 8 -25 5 -11 -3
-19 -1 -19 4 0 16 58 10 64 -7z m67 0 c-12 -9 -21 -26 -21 -40 0 -13 -4 -24
-10 -24 -5 0 -10 17 -10 38 0 37 2 39 31 40 31 1 31 0 10 -14z m-588 -204 c18
-43 22 -60 12 -60 -7 0 -15 7 -19 15 -7 20 -53 19 -64 -1 -5 -9 -14 -15 -19
-13 -14 5 36 119 52 119 6 0 23 -27 38 -60z m907 35 c0 -8 6 -15 13 -16 10 0
10 -2 0 -6 -7 -2 -13 -17 -13 -33 0 -16 6 -31 13 -33 6 -3 2 -6 -10 -6 -19 -1
-23 4 -23 28 0 17 -4 33 -10 36 -6 4 -5 13 3 25 14 24 27 26 27 5z m-805 -25
c-3 -5 -12 -7 -20 -3 -8 3 -15 0 -15 -5 0 -6 9 -14 21 -17 32 -11 19 -39 -20
-43 -20 -2 -31 1 -27 6 3 6 15 8 26 5 29 -8 25 12 -5 25 -41 19 -31 42 17 42
16 0 27 -4 23 -10z m65 -1 l-25 -10 28 -15 c36 -19 30 -38 -12 -42 -21 -2 -31
0 -27 7 4 6 13 8 20 5 8 -3 17 -1 20 4 3 6 -5 13 -19 16 -42 11 -31 46 14 45
l26 0 -25 -10z m128 -11 c3 -14 -3 -18 -28 -18 -21 0 -30 -4 -27 -12 2 -7 14
-12 26 -11 11 2 21 -2 21 -8 0 -6 -14 -9 -32 -7 -26 2 -34 8 -36 26 -6 40 5
54 40 50 22 -2 34 -9 36 -20z m87 12 c-3 -5 -12 -7 -20 -3 -8 3 -15 0 -15 -5
0 -6 9 -14 21 -17 32 -11 19 -39 -20 -43 -20 -2 -31 1 -27 6 3 6 15 8 26 5 29
-8 25 12 -5 25 -41 19 -31 42 17 42 16 0 27 -4 23 -10z m65 -1 l-25 -10 28
-15 c36 -19 30 -38 -12 -42 -21 -2 -31 0 -27 7 4 6 13 8 20 5 8 -3 17 -1 20 4
3 6 -5 13 -19 16 -42 11 -31 46 14 45 l26 0 -25 -10z m180 -29 c0 -48 -17 -54
-22 -7 -2 17 -7 32 -13 32 -5 0 -11 -15 -13 -32 -4 -38 -22 -45 -22 -9 0 25
-22 51 -33 39 -4 -3 -7 -19 -7 -35 0 -15 -4 -28 -10 -28 -5 0 -10 17 -10 38
l0 39 65 1 65 1 0 -39z m108 18 c3 -14 -3 -18 -28 -18 -21 0 -30 -4 -27 -12 2
-7 14 -13 26 -12 11 0 21 -3 21 -8 0 -12 -44 -10 -58 4 -16 16 -15 41 0 56 18
18 62 11 66 -10z m110 -20 c2 -21 -1 -38 -7 -38 -5 0 -11 15 -13 33 -2 20 -8
32 -18 32 -10 0 -16 -12 -18 -32 -5 -46 -22 -41 -22 6 0 39 0 39 38 38 35 -2
37 -4 40 -39z m644 0 c73 -34 142 -103 176 -176 23 -49 27 -70 27 -152 0 -77
-4 -104 -22 -143 -31 -66 -115 -152 -182 -184 -49 -25 -68 -28 -151 -28 -85 0
-101 3 -154 29 -33 16 -80 49 -104 73 -24 24 -56 70 -70 101 -24 50 -27 69
-27 157 0 89 3 106 27 151 50 95 98 140 197 181 79 33 201 29 283 -9z m-1879
-6 c70 -31 149 -111 183 -185 25 -53 29 -75 29 -147 0 -110 -32 -186 -111
-260 -79 -75 -129 -94 -244 -94 -88 -1 -100 2 -162 32 -82 40 -148 111 -179
190 -43 110 -23 262 44 346 l24 29 69 -25 69 -26 0 -63 c0 -57 -3 -68 -32
-103 -37 -44 -42 -61 -15 -53 42 12 47 11 47 -3 0 -8 -6 -14 -14 -12 -20 4
-32 -20 -18 -36 8 -11 7 -16 -6 -23 -21 -13 -22 -35 -1 -43 13 -5 14 -9 4 -21
-14 -16 -2 -40 20 -40 10 0 14 -8 12 -24 -3 -20 0 -23 21 -19 19 4 27 0 30
-14 5 -19 37 -26 37 -8 0 6 7 10 15 10 8 0 15 -4 15 -10 0 -19 32 -10 37 10 4
16 9 18 19 9 18 -15 37 -1 31 22 -4 14 0 19 13 19 24 0 36 18 21 33 -15 15
-14 27 3 27 24 0 27 29 4 41 -19 10 -19 12 -5 20 21 12 11 39 -15 39 -15 0
-18 5 -14 16 4 9 1 23 -5 30 -6 8 -8 14 -3 14 12 -1 64 -77 64 -93 0 -20 30
-57 47 -57 10 0 14 6 10 20 -4 17 0 20 28 20 18 0 38 6 45 14 9 12 5 16 -27
22 -34 7 -35 8 -14 14 39 9 35 26 -10 39 -23 7 -49 19 -57 27 -8 8 -22 12 -33
9 -11 -4 -19 -2 -19 4 0 6 -7 11 -15 11 -8 0 -15 5 -15 10 0 6 -7 10 -15 10
-23 0 -46 44 -62 118 -12 57 -20 74 -58 112 -25 25 -45 49 -45 52 0 26 189 19
253 -10z m-188 -282 c4 -6 14 -10 23 -9 10 1 22 1 28 0 14 -1 37 -51 24 -51
-6 0 -10 6 -10 14 0 24 -22 30 -37 10 -13 -18 -15 -18 -24 -1 -14 23 -39 22
-39 -3 0 -21 -15 -27 -25 -9 -4 6 3 21 16 35 25 26 34 29 44 14z m70 -113 c36
-31 38 -86 5 -122 -32 -34 -91 -35 -125 0 -78 77 37 194 120 122z m1057 -79
c164 -75 251 -257 204 -424 -79 -278 -421 -361 -615 -149 -76 84 -111 196 -92
298 27 148 131 260 276 298 58 15 167 4 227 -23z"/>
<path d="M1453 2748 c-36 -46 -204 -351 -201 -365 3 -17 22 -18 226 -21 l222
-2 0 22 c0 19 -142 278 -192 351 -21 29 -40 34 -55 15z"/>
<path d="M2342 2185 c-62 -19 -106 -57 -136 -117 -102 -205 123 -417 321 -302
171 99 141 362 -48 418 -62 19 -80 19 -137 1z"/>
<path d="M1190 1614 c-11 -12 -10 -18 3 -32 16 -15 18 -15 34 0 13 14 14 20 3
32 -7 9 -16 16 -20 16 -4 0 -13 -7 -20 -16z"/>
<path d="M1085 1589 c-4 -6 -4 -13 -1 -16 8 -8 36 5 36 17 0 13 -27 13 -35 -1z"/>
<path d="M1313 1623 c-7 -3 -13 -13 -13 -23 0 -19 17 -30 38 -23 6 3 12 13 12
23 0 19 -17 30 -37 23z"/>
<path d="M1495 1589 c-4 -6 -4 -13 -1 -16 8 -8 36 5 36 17 0 13 -27 13 -35 -1z"/>
<path d="M1683 1623 c-18 -6 -16 -40 1 -46 8 -3 20 1 27 9 10 12 9 18 -2 28
-8 8 -20 12 -26 9z"/>
<path d="M1700 1414 c-11 -12 -10 -18 3 -32 16 -15 18 -15 34 0 13 14 14 20 3
32 -7 9 -16 16 -20 16 -4 0 -13 -7 -20 -16z"/>
<path d="M1325 1390 c-8 -12 20 -24 35 -15 6 3 8 11 5 16 -8 12 -32 12 -40 -1z"/>
<path d="M1525 1389 c-4 -6 -4 -13 -1 -16 8 -8 36 5 36 17 0 13 -27 13 -35 -1z"/>
<path d="M1007 1243 c-13 -12 -7 -43 8 -43 8 0 15 6 15 13 0 18 -15 38 -23 30z"/>
<path d="M1290 1220 c0 -5 9 -10 20 -10 11 0 20 5 20 10 0 6 -9 10 -20 10 -11
0 -20 -4 -20 -10z"/>
<path d="M1735 1220 c-3 -5 3 -10 14 -10 12 0 21 5 21 10 0 6 -6 10 -14 10 -8
0 -18 -4 -21 -10z"/>
<path d="M2348 1072 c3 -40 -2 -64 -32 -134 -35 -80 -43 -110 -36 -133 2 -5
-6 -30 -17 -55 -11 -25 -23 -53 -26 -62 -4 -10 -16 -18 -27 -18 -11 0 -20 -7
-20 -15 0 -20 44 -19 61 1 8 9 21 35 29 58 12 31 22 42 40 44 14 2 31 9 38 14
18 15 16 -14 -5 -50 -27 -47 -1 -81 52 -68 18 5 25 13 25 32 0 29 -17 64 -39
81 -14 11 -13 12 7 13 12 0 22 -4 22 -10 0 -5 13 -10 29 -10 26 0 31 -5 46
-51 18 -52 48 -78 79 -66 22 9 20 27 -3 27 -23 0 -35 14 -52 63 -7 21 -19 43
-26 48 -9 8 -9 15 -1 29 9 14 3 38 -32 123 -35 85 -42 113 -37 146 l5 41 -42
0 -43 0 5 -48z m62 -108 c0 -14 -21 -19 -33 -7 -9 9 13 34 24 27 5 -3 9 -12 9
-20z"/>
<path d="M620 1078 c0 -5 -5 -6 -11 -3 -6 4 -13 -2 -16 -14 -3 -11 -10 -18
-16 -14 -6 4 -8 -2 -5 -15 4 -12 2 -22 -3 -22 -5 0 -9 -7 -9 -15 0 -8 4 -15 9
-15 5 0 7 -9 4 -20 -4 -14 0 -20 11 -20 9 0 15 -6 14 -12 -2 -7 5 -12 15 -12
9 1 17 -1 17 -5 0 -4 16 -7 35 -8 22 -1 33 3 28 10 -4 7 0 8 11 4 13 -5 19 -1
23 13 3 11 10 20 15 20 6 0 8 6 5 14 -3 7 0 19 6 26 9 9 9 14 1 17 -7 2 -10
13 -7 23 4 14 0 20 -11 20 -9 0 -15 6 -13 13 1 6 -6 11 -15 11 -10 -1 -18 2
-18 6 0 4 -16 8 -35 8 -19 0 -35 -4 -35 -10z m72 -45 c41 -37 3 -105 -50 -87
-21 7 -28 17 -30 44 -5 53 41 78 80 43z"/>
<path d="M1432 618 c-33 -40 -210 -362 -205 -374 4 -12 44 -14 227 -12 195 3
221 5 224 19 4 22 -201 373 -220 377 -8 2 -20 -3 -26 -10z m58 -105 l28 -48
-27 -22 c-33 -29 -40 -29 -73 0 l-27 23 30 53 c17 29 33 50 36 47 4 -3 18 -27
33 -53z"/>
</g>
</svg>
